<svg xmlns="http://www.w3.org/2000/svg" viewBox="0 0 708.51 128" width="708.51" height="128"><circle cx="64" cy="64" r="64" fill="#D4B36A"></circle><path transform="translate(162.56 101.94)" d="M39.844 0L27.197 0L27.197-59.717L2.246-59.717L2.246-70.313L64.893-70.313L64.893-59.717L39.844-59.717L39.844 0Z M85.072 0L73.012 0L73.012-73.242L85.072-73.242L85.072-44.238Q87.270-48.291 90.980-50.879L90.980-50.879Q95.424-53.955 101.820-53.955L101.820-53.955Q107.729-53.955 111.684-51.294Q115.639-48.633 117.665-43.823Q119.691-39.014 119.691-32.568L119.691-32.568L119.691 0L107.582 0L107.582-31.250Q107.582-37.793 105.556-41.187Q103.529-44.580 98.158-44.580L98.158-44.580Q92.006-44.580 88.539-40.039Q85.072-35.498 85.072-26.416L85.072-26.416L85.072 0Z M142.508 0L130.447 0L130.447-52.734L142.508-52.734L142.508 0ZM136.453-60.010L136.453-60.010Q132.693-60.010 130.301-62.402Q127.908-64.795 127.908-68.555L127.908-68.555Q127.908-72.363 130.301-74.731Q132.693-77.100 136.453-77.100L136.453-77.100Q140.262-77.100 142.630-74.731Q144.998-72.363 144.998-68.555L144.998-68.555Q144.998-64.795 142.630-62.402Q140.262-60.010 136.453-60.010Z M167.766 0L155.705 0L155.705-52.734L167.277-52.734L167.277-43.555Q169.670-48.535 173.869-51.123L173.869-51.123Q178.459-53.955 183.635-53.955L183.635-53.955Q185.100-53.955 186.589-53.711Q188.078-53.467 189.445-52.881L189.445-52.881L188.371-42.285Q185.393-43.164 182.561-43.164L182.561-43.164Q180.461-43.164 177.897-42.407Q175.334-41.650 173.039-39.600Q170.744-37.549 169.255-33.716Q167.766-29.883 167.766-23.779L167.766-23.779L167.766 0Z M215.631 1.221L215.631 1.221Q209.137 1.221 204.229-2.100Q199.322-5.420 196.661-11.646Q194-17.871 194-26.465Q194-35.059 196.686-41.211Q199.371-47.363 204.278-50.659Q209.186-53.955 215.777-53.955L215.777-53.955Q221.344-53.955 226.129-51.318L226.129-51.318Q229.889-49.268 232.379-45.020L232.379-45.020L232.379-73.242L244.488-73.242L244.488 0L233.014 0L233.014-9.570Q230.572-4.150 226.080-1.514L226.080-1.514Q221.344 1.221 215.631 1.221ZM219.732-8.154L219.732-8.154Q223.443-8.154 226.422-10.107Q229.400-12.061 231.158-16.089Q232.916-20.117 232.916-26.270L232.916-26.270Q232.916-35.498 229.107-40.039Q225.299-44.580 219.830-44.580L219.830-44.580Q214.068-44.580 210.479-39.771Q206.891-34.961 206.891-26.172L206.891-26.172Q206.891-17.676 210.357-12.915Q213.824-8.154 219.732-8.154Z  M309.213 1.221L309.213 1.221Q298.910 1.221 291.269-3.369Q283.627-7.959 279.428-16.211Q275.229-24.463 275.229-35.400L275.229-35.400Q275.229-46.094 279.306-54.224Q283.383-62.354 291-66.943Q298.617-71.533 309.115-71.533L309.115-71.533Q320.541-71.533 328.720-65.771Q336.898-60.010 339.486-48.779L339.486-48.779L326.498-45.752Q324.789-53.418 320.175-57.178Q315.561-60.938 309.018-60.938L309.018-60.938Q302.572-60.938 298.007-57.690Q293.441-54.443 291.024-48.657Q288.607-42.871 288.607-35.205L288.607-35.205Q288.607-27.441 291.073-21.606Q293.539-15.771 298.056-12.573Q302.572-9.375 308.773-9.375L308.773-9.375Q315.512-9.375 320.248-13.306Q324.984-17.236 326.498-24.365L326.498-24.365L339.828-21.387Q336.947-10.449 328.793-4.614Q320.639 1.221 309.213 1.221Z M360.594 0L348.533 0L348.533-52.734L360.594-52.734L360.594 0ZM354.539-60.010L354.539-60.010Q350.779-60.010 348.387-62.402Q345.994-64.795 345.994-68.555L345.994-68.555Q345.994-72.363 348.387-74.731Q350.779-77.100 354.539-77.100L354.539-77.100Q358.348-77.100 360.716-74.731Q363.084-72.363 363.084-68.555L363.084-68.555Q363.084-64.795 360.716-62.402Q358.348-60.010 354.539-60.010Z M385.852 0L373.791 0L373.791-52.734L385.363-52.734L385.363-43.555Q387.756-48.535 391.955-51.123L391.955-51.123Q396.545-53.955 401.721-53.955L401.721-53.955Q403.186-53.955 404.675-53.711Q406.164-53.467 407.531-52.881L407.531-52.881L406.457-42.285Q403.479-43.164 400.646-43.164L400.646-43.164Q398.547-43.164 395.983-42.407Q393.420-41.650 391.125-39.600Q388.830-37.549 387.341-33.716Q385.852-29.883 385.852-23.779L385.852-23.779L385.852 0Z M438.648 1.221L438.648 1.221Q430.641 1.221 424.830-2.148Q419.020-5.518 415.870-11.719Q412.721-17.920 412.721-26.367L412.721-26.367Q412.721-34.863 415.870-41.064Q419.020-47.266 424.830-50.610Q430.641-53.955 438.600-53.955L438.600-53.955Q444.410-53.955 449.293-51.855Q454.176-49.756 457.594-45.654Q461.012-41.553 462.379-35.596L462.379-35.596L450.660-32.959Q449.488-38.770 446.388-41.772Q443.287-44.775 438.551-44.775L438.551-44.775Q432.105-44.775 428.834-39.795Q425.563-34.814 425.563-26.270L425.563-26.270Q425.563-17.725 428.810-12.842Q432.057-7.959 438.551-7.959L438.551-7.959Q443.189-7.959 446.314-10.742Q449.439-13.525 450.758-19.043L450.758-19.043L462.184-16.602Q461.109-12.109 458.863-8.765Q456.617-5.420 453.468-3.198Q450.318-0.977 446.559 0.122Q442.799 1.221 438.648 1.221Z M490.273 0L481.777 0Q476.943 0 474.111-2.563Q471.279-5.127 471.279-9.619L471.279-9.619L471.279-73.242L483.389-73.242L483.389-11.914Q483.389-10.254 483.853-9.717Q484.316-9.180 485.830-9.180L485.830-9.180L490.273-9.180L490.273 0Z M521.342 1.221L521.342 1.221Q513.676 1.221 507.768-2.148Q501.859-5.518 498.490-11.719Q495.121-17.920 495.121-26.367Q495.121-34.814 498.441-41.016Q501.762-47.217 507.621-50.586Q513.480-53.955 521.146-53.955L521.146-53.955Q525.443-53.955 529.813-52.637Q534.184-51.318 537.821-47.974Q541.459-44.629 543.705-38.745Q545.951-32.861 545.951-23.828L545.951-23.828L508.012-23.828Q508.402-16.992 511.283-12.891L511.283-12.891Q514.652-8.008 521.244-8.008L521.244-8.008Q525.736-8.008 528.910-10.303Q532.084-12.598 533.646-17.139L533.646-17.139L544.877-14.014Q542.973-8.887 539.457-5.518Q535.941-2.148 531.254-0.464Q526.566 1.221 521.342 1.221ZM508.256-31.494L508.256-31.494L533.109-31.494Q532.621-35.498 531.352-38.232L531.352-38.232Q529.594-41.797 526.884-43.433Q524.174-45.068 520.854-45.068L520.854-45.068Q516.654-45.068 513.773-42.798Q510.893-40.527 509.428-36.328L509.428-36.328Q508.646-34.131 508.256-31.494Z" fill="#0B2620"></path></svg>